<svg width="61" height="25" viewBox="0 0 61 25" fill="none" xmlns="http://www.w3.org/2000/svg">
<rect x="0.104004" y="0.668335" width="60" height="24" rx="4" fill="url(#paint0_linear_117_43)"/>
<g clip-path="url(#clip0_117_43)">
<path d="M8.68391 11.1683C7.86477 11.1683 7.19446 11.8433 7.19446 12.6683C7.19446 13.4933 7.86477 14.1683 8.68391 14.1683C9.50305 14.1683 10.1734 13.4933 10.1734 12.6683C10.1734 11.8433 9.50305 11.1683 8.68391 11.1683Z" fill="white"/>
</g>
<path d="M20.0892 15.5258V16.6683H16.3051V15.5258H20.0892ZM16.7836 9.55896V16.6683H15.3187V9.55896H16.7836ZM19.5961 12.4545V13.5677H16.3051V12.4545H19.5961ZM20.0844 9.55896V10.7064H16.3051V9.55896H20.0844ZM27.4799 9.55896V16.6683H26.0151L23.1586 11.9027V16.6683H21.6938V9.55896H23.1586L26.02 14.3295V9.55896H27.4799ZM35.3082 15.184L36.983 9.55896H38.6139L36.1383 16.6683H35.0641L35.3082 15.184ZM33.7653 9.55896L35.4352 15.184L35.6891 16.6683H34.6051L32.1442 9.55896H33.7653ZM41.5856 9.55896V16.6683H40.1257V9.55896H41.5856ZM46.2713 15.184L47.9461 9.55896H49.5769L47.1014 16.6683H46.0271L46.2713 15.184ZM44.7283 9.55896L46.3982 15.184L46.6521 16.6683H45.5681L43.1072 9.55896H44.7283ZM56.7626 12.9476V13.2845C56.7626 13.8249 56.6893 14.3099 56.5428 14.7396C56.3964 15.1693 56.1896 15.5355 55.9227 15.8383C55.6558 16.1377 55.3368 16.3672 54.9657 16.5267C54.5979 16.6862 54.1893 16.766 53.7401 16.766C53.2941 16.766 52.8856 16.6862 52.5145 16.5267C52.1467 16.3672 51.8277 16.1377 51.5575 15.8383C51.2873 15.5355 51.0773 15.1693 50.9276 14.7396C50.7811 14.3099 50.7079 13.8249 50.7079 13.2845V12.9476C50.7079 12.404 50.7811 11.919 50.9276 11.4926C51.0741 11.0629 51.2808 10.6967 51.5477 10.3939C51.8179 10.0912 52.1369 9.86007 52.5048 9.70056C52.8758 9.54106 53.2844 9.4613 53.7303 9.4613C54.1796 9.4613 54.5881 9.54106 54.9559 9.70056C55.327 9.86007 55.646 10.0912 55.913 10.3939C56.1831 10.6967 56.3915 11.0629 56.538 11.4926C56.6877 11.919 56.7626 12.404 56.7626 12.9476ZM55.2831 13.2845V12.9379C55.2831 12.5603 55.2489 12.2282 55.1805 11.9418C55.1122 11.6553 55.0113 11.4144 54.8778 11.2191C54.7443 11.0238 54.5816 10.8773 54.3895 10.7797C54.1975 10.6788 53.9777 10.6283 53.7303 10.6283C53.4829 10.6283 53.2632 10.6788 53.0712 10.7797C52.8824 10.8773 52.7212 11.0238 52.5878 11.2191C52.4576 11.4144 52.3583 11.6553 52.2899 11.9418C52.2215 12.2282 52.1874 12.5603 52.1874 12.9379V13.2845C52.1874 13.6589 52.2215 13.9909 52.2899 14.2806C52.3583 14.5671 52.4592 14.8096 52.5926 15.0082C52.7261 15.2035 52.8889 15.3516 53.0809 15.4525C53.273 15.5534 53.4927 15.6039 53.7401 15.6039C53.9875 15.6039 54.2072 15.5534 54.3993 15.4525C54.5913 15.3516 54.7525 15.2035 54.8827 15.0082C55.0129 14.8096 55.1122 14.5671 55.1805 14.2806C55.2489 13.9909 55.2831 13.6589 55.2831 13.2845Z" fill="white"/>
<defs>
<linearGradient id="paint0_linear_117_43" x1="30.104" y1="24.6683" x2="30.104" y2="0.668335" gradientUnits="userSpaceOnUse">
<stop stop-color="#323F5E"/>
<stop offset="1" stop-color="#161B27"/>
</linearGradient>
<clipPath id="clip0_117_43">
<rect width="12" height="12" fill="white" transform="translate(2.68396 6.66833)"/>
</clipPath>
</defs>
</svg>
