<svg width="143" height="29" viewBox="0 0 143 29" fill="none" xmlns="http://www.w3.org/2000/svg">
<g clip-path="url(#clip0_117_27)">
<path fill-rule="evenodd" clip-rule="evenodd" d="M69.0506 20.735H65.616V7.92967H69.0506V20.735ZM91.0773 20.735H87.6426V7.92967H91.0773V20.735ZM110.276 20.735H106.841V7.92967H110.276V20.735ZM53.436 20.735H49.992V13.7817C49.992 10.515 52.1013 7.659 56.32 7.659C60.24 7.659 62.508 10.5337 62.508 13.7817V20.735H59.064V13.651C59.064 12.0643 57.8226 10.851 56.236 10.851C55.8647 10.8394 55.495 10.9038 55.1495 11.0403C54.804 11.1768 54.4901 11.3825 54.227 11.6447C53.9639 11.9069 53.7572 12.2202 53.6196 12.5652C53.4819 12.9102 53.4163 13.2797 53.4266 13.651V20.7443L53.436 20.735ZM132.256 20.735H128.821V13.7817C128.821 10.515 130.931 7.659 135.149 7.659C139.069 7.659 141.328 10.5337 141.328 13.7817V20.735H137.903V13.651C137.903 12.0643 136.652 10.851 135.075 10.851C134.703 10.8381 134.332 10.9016 133.985 11.0375C133.639 11.1734 133.324 11.3788 133.06 11.6412C132.795 11.9036 132.588 12.2172 132.45 12.5629C132.311 12.9086 132.246 13.2789 132.256 13.651V20.7443V20.735ZM78.3466 15.751L81.856 7.92967H85.4213L79.5413 20.735H77.1613L71.2906 7.92967H74.8373L78.356 15.751H78.3466ZM95.5013 16.8337C96.4845 17.6567 97.7284 18.1033 99.0106 18.0937C99.9346 18.0937 100.644 17.6457 100.644 17.0203C100.644 15.0883 94.4466 15.779 94.4466 11.6537C94.4466 9.18967 96.8173 7.659 99.356 7.659C101.017 7.659 102.837 8.29367 103.687 8.95633L102.081 11.439C101.369 10.9035 100.508 10.6004 99.6173 10.571C98.6746 10.571 97.872 10.9443 97.872 11.5977C97.872 13.2683 104.079 12.5963 104.079 17.0483C104.079 19.503 101.68 21.0057 98.9826 21.0057C97.2186 21.0057 95.3426 20.399 93.8493 19.2883L95.5013 16.8337ZM119.553 17.8323C121.56 17.8323 122.932 16.2737 122.932 14.351C122.932 12.419 121.56 10.8323 119.553 10.8323C117.556 10.8323 116.175 12.419 116.175 14.351C116.175 16.2737 117.556 17.8323 119.553 17.8323ZM119.553 7.659C123.436 7.659 126.357 10.6457 126.357 14.351C126.36 15.2383 126.185 16.1172 125.842 16.9357C125.499 17.7541 124.996 18.4955 124.361 19.1159C123.727 19.7364 122.975 20.2233 122.149 20.5479C121.323 20.8725 120.44 21.0281 119.553 21.0057C117.783 21.0057 116.086 20.3026 114.835 19.0511C113.583 17.7996 112.88 16.1022 112.88 14.3323C112.88 12.5625 113.583 10.8651 114.835 9.61357C116.086 8.36208 117.783 7.659 119.553 7.659ZM43.748 7.92967H47.1826V14.883C47.1826 18.1497 45.064 21.0057 40.8453 21.0057C40.0293 21.0409 39.2148 20.907 38.453 20.6125C37.6911 20.318 36.9984 19.8692 36.4182 19.2943C35.838 18.7194 35.383 18.0308 35.0815 17.2717C34.7801 16.5125 34.6389 15.6993 34.6666 14.883V7.92967H38.092V15.023C38.092 15.3931 38.1653 15.7595 38.3078 16.101C38.4502 16.4426 38.659 16.7525 38.9219 17.0129C39.1849 17.2732 39.4969 17.4789 39.8399 17.618C40.1828 17.757 40.5499 17.8267 40.92 17.823C42.4133 17.823 43.748 16.7683 43.748 15.023V7.92967Z" fill="#6D6D6D"/>
<path fill-rule="evenodd" clip-rule="evenodd" d="M11.3893 0.668335V16.143C12.1547 16.143 16.4573 16.255 20.0973 15.9283C21.012 15.835 21.908 15.723 22.7667 15.5737C24.8573 15.1723 26.6213 14.547 27.2373 14.0337V2.20833C25.6413 1.023 18.9307 0.668335 11.3893 0.668335Z" fill="#00C56E"/>
<path fill-rule="evenodd" clip-rule="evenodd" d="M27.2373 14.239V14.0337C26.6213 14.547 24.8573 15.1723 22.7573 15.5737C21.9173 15.7137 21.012 15.835 20.0973 15.9283C16.4573 16.255 12.164 16.143 11.3893 16.143V16.4137L11.408 18.1497L11.4267 18.6443C11.4453 19.391 11.4827 20.1377 11.5293 20.8657C11.6227 22.3963 11.8 23.8337 12.0613 25.0283C12.36 26.363 12.78 27.4083 13.368 27.959L13.396 27.987L13.9747 28.0057C18.4733 28.0057 22.44 25.7657 24.8387 22.3403C25.754 20.9555 26.4087 19.4151 26.7707 17.795C27.0787 16.675 27.2373 15.4803 27.2373 14.2483V14.239Z" fill="#1717EF"/>
<path fill-rule="evenodd" clip-rule="evenodd" d="M13.368 27.959C12.78 27.4083 12.36 26.3723 12.0613 25.0283C11.7825 23.6556 11.6047 22.2644 11.5293 20.8657C11.4295 19.3807 11.3828 17.8926 11.3893 16.4043V16.143C7.89866 16.143 4.86533 15.8817 3.41866 15.6203C1.89733 15.3403 0.889325 14.7803 0.711992 14.5003C0.659083 17.3107 1.5061 20.0643 3.12933 22.359C4.29481 24.0212 5.82681 25.3932 7.60698 26.3691C9.38715 27.345 11.3678 27.8985 13.396 27.987L13.368 27.959Z" fill="#FF161F"/>
<path fill-rule="evenodd" clip-rule="evenodd" d="M1.22531 1.583C0.945308 1.583 0.711975 1.81634 0.711975 2.09634V14.5003C0.889308 14.7803 1.89731 15.3403 3.41864 15.6203L4.24931 15.7417C5.86398 15.9563 8.45864 16.143 11.3893 16.143V6.60434C8.08531 2.34834 2.97064 1.583 1.22531 1.583Z" fill="#E621BB"/>
</g>
<defs>
<clipPath id="clip0_117_27">
<rect width="141.867" height="28" fill="white" transform="translate(0.170654 0.668335)"/>
</clipPath>
</defs>
</svg>
