<svg width="61" height="25" viewBox="0 0 61 25" fill="none" xmlns="http://www.w3.org/2000/svg">
<rect x="0.104004" y="0.668335" width="60" height="24" rx="4" fill="url(#paint0_linear_117_48)"/>
<g clip-path="url(#clip0_117_48)">
<g clip-path="url(#clip1_117_48)">
<path d="M18.0802 6.96512C18.2919 6.96512 18.4466 7.0791 18.4955 7.28264L20.6204 14.9276L22.7698 7.28264C22.8187 7.08725 22.9652 6.96512 23.1851 6.96512H26.6534C26.8162 6.96512 26.9302 7.12795 26.8814 7.28264L23.4619 18.2169C23.3967 18.4286 23.2502 18.5344 23.0304 18.5344H18.1454C17.9337 18.5344 17.779 18.4367 17.7139 18.2169L14.2781 7.28264C14.2292 7.1361 14.3514 6.96512 14.5142 6.96512H18.0802ZM27.5246 9.14708C27.5246 7.8607 28.583 6.80229 29.8694 6.80229C31.1557 6.80229 32.2141 7.8607 32.2141 9.14708C32.2141 10.4335 31.1557 11.4919 29.8694 11.4919C28.583 11.4919 27.5246 10.4335 27.5246 9.14708ZM31.9699 18.1924C31.9699 18.3878 31.8396 18.5263 31.6361 18.5263H28.1026C27.9072 18.5263 27.7688 18.396 27.7688 18.1924V12.7294C27.7688 12.534 27.8991 12.3956 28.1026 12.3956H31.6361C31.8315 12.3956 31.9699 12.5259 31.9699 12.7294V18.1924ZM33.1749 18.111L36.5129 12.7457L33.1749 7.38034C33.0527 7.18494 33.1586 6.96512 33.3865 6.96512H37.1642C37.4248 6.96512 37.5795 7.04654 37.6935 7.24194L39.5253 10.4416L41.3572 7.24194C41.4793 7.04654 41.6259 6.96512 41.8864 6.96512H45.5827C45.8107 6.96512 45.9165 7.1768 45.7944 7.38034L42.4563 12.7457L45.7944 18.111C45.9084 18.3064 45.8107 18.5263 45.5827 18.5263H41.805C41.5445 18.5263 41.3898 18.4448 41.2758 18.2495L39.4439 15.0498L37.6121 18.2495C37.4981 18.4448 37.3515 18.5263 37.0828 18.5263H33.3865C33.1586 18.5263 33.0527 18.3146 33.1749 18.111Z" fill="white"/>
</g>
</g>
<defs>
<linearGradient id="paint0_linear_117_48" x1="0.104004" y1="0.668335" x2="55.4963" y2="32.6491" gradientUnits="userSpaceOnUse">
<stop offset="0.05" stop-color="#D42B5F"/>
<stop offset="0.5" stop-color="#FF5900"/>
<stop offset="0.9" stop-color="#F83B15"/>
</linearGradient>
<clipPath id="clip0_117_48">
<rect width="36" height="17" fill="white" transform="translate(12.104 4.16833)"/>
</clipPath>
<clipPath id="clip1_117_48">
<rect width="32" height="32" fill="white" transform="translate(14.104 -3.33167)"/>
</clipPath>
</defs>
</svg>
