<svg width="33" height="32" viewBox="0 0 33 32" fill="none" xmlns="http://www.w3.org/2000/svg">
<g clip-path="url(#clip0_115_247)">
<path fill-rule="evenodd" clip-rule="evenodd" d="M19.47 7.99999C19.57 8.01249 19.6575 8.04999 19.7325 8.11249L28.4575 15.0125C28.595 15.1125 28.67 15.275 28.67 15.45C28.67 15.625 28.595 15.775 28.4575 15.8875L19.7325 22.7875C19.57 22.9125 19.345 22.9375 19.1575 22.85C18.97 22.7625 18.8575 22.575 18.845 22.3625V19.075C18.5825 19.075 18.4075 19.075 17.8075 19.1125C16.92 19.1875 15.7075 19.3375 14.345 19.65C11.62 20.2625 8.26997 21.475 5.55747 23.8875C5.36997 24.05 5.10747 24.075 4.89497 23.9375C4.69497 23.8 4.59497 23.5375 4.68247 23.3125C6.95747 16.2125 13.92 13.3375 18.845 12.025V8.58749C18.845 8.42499 18.9075 8.27499 19.0325 8.17499C19.1575 8.03749 19.3075 7.98749 19.47 7.99999ZM19.945 9.67499V12.4125C19.945 12.6625 19.7825 12.8875 19.5325 12.95C15.2075 14.0625 9.24497 16.4 6.51997 21.7875C9.04497 20.0625 11.795 19.075 14.12 18.55C15.545 18.2375 16.8075 18.075 17.7325 18C18.67 17.925 19.2325 17.925 19.42 17.925C19.7075 17.9375 19.945 18.1875 19.945 18.475V21.2125L27.245 15.45L19.945 9.67499Z" fill="black"/>
</g>
<defs>
<clipPath id="clip0_115_247">
<rect width="32" height="32" fill="white" transform="translate(0.669922)"/>
</clipPath>
</defs>
</svg>
