<svg xmlns="http://www.w3.org/2000/svg" id="Layer_2" data-name="Layer 2" viewBox="0 0 1000 178"><defs><style>.cls-1{fill:#062b3e}</style></defs><g id="Layer_1-2" data-name="Layer 1"><g id="_062b3eff" data-name="#062b3eff"><path d="M801.5 0h30.75v129.99c-.01 15.02-.26 30.16 2.27 45.02-10.23-.02-20.47 0-30.7 0-.86-4.53-1.4-9.11-1.72-13.7-7.71 10.34-20.46 15.54-33 16.7h-10.5c-13.78-.97-27.72-6.08-37.33-16.31-11.97-12.2-16.03-30.03-15.68-46.66.3-15.34 5.32-31.04 16.05-42.3 10.77-11.57 26.68-17.67 42.37-17.52 13.79-.31 28.37 4.3 37.53 15.04-.1-23.42 0-46.83-.04-70.25m-40.02 83.77c-10.24 1.84-19.07 9.42-22.43 19.27-4.67 13.25-2.54 29.91 8.37 39.54 8.94 7.99 22.41 9.59 33.47 5.52 8.86-3.19 15.71-11.03 18.2-20.05 3.47-12.53 1.43-27.57-8.3-36.84-7.71-7.2-19.14-9.56-29.31-7.44ZM861.36 1.61c7.08-2.23 15.44.02 20.15 5.84 5.62 6.67 5.49 17.32-.18 23.93-5.01 6.07-14.01 7.99-21.25 5.19-7.09-2.59-12-10.01-11.63-17.56-.24-7.85 5.39-15.28 12.91-17.4ZM425.81 68.83c5.63-7.81 15.05-11.92 24.37-13.17 11.46-1.33 23.88-.14 33.63 6.53 5.18 3.33 9.14 8.22 12.09 13.57 3.78-7.53 10.15-13.7 17.94-16.95 9.5-3.98 20.22-4.47 30.27-2.59 10.31 1.99 19.81 8.18 25.35 17.17 4.57 7.32 6.68 16 7.03 24.57.03 25.67 0 51.35.02 77.02-9.92.04-19.84.02-29.76.01-.01-23.68.01-47.36-.01-71.04-.16-7.29-3.23-15.06-9.75-18.89-9.99-5.68-24.75-3.25-30.86 6.98-2.97 4.73-4.04 10.42-4.14 15.93.02 22.34.01 44.69.01 67.03h-30.25c-.01-22.99.01-45.98 0-68.98-.04-6.77-1.83-14.02-6.92-18.81-5.84-5.26-14.58-6.2-21.92-4.04-6.39 1.79-11.47 6.99-13.76 13.14-2.17 5.62-2.27 11.73-2.15 17.67v61.03h-31c0-38.75-.01-77.5.01-116.25h28.66c.37 3.36.76 6.72 1.14 10.08ZM631.96 56.22c16.15-2.73 33.88-.43 47.29 9.52 11.81 8.5 19.09 22.18 21.57 36.34 1.7 8.45 1.08 17.11 1.17 25.67-29.17 0-58.34-.01-87.51.01.91 6.44 3.52 12.91 8.63 17.16 8.1 6.92 19.75 8.17 29.85 5.9 8.37-1.91 15.15-8.12 19.05-15.62 8.5 3.45 17.08 6.73 25.58 10.2-2.45 5.58-5.73 10.8-9.89 15.25-9.91 10.57-24.18 16.25-38.47 17.35h-10.62c-9.71-.84-19.39-3.61-27.59-8.99-13.19-8.37-21.68-22.87-24.29-38.1-3.07-17.6-.71-36.82 9.42-51.86 8.1-12.17 21.47-20.38 35.81-22.83m-6.44 30.36c-6.08 4.86-9.2 12.45-10.52 19.94 18.59-.04 37.19-.02 55.78-.02-.56-5.38-1.82-10.84-4.89-15.39-3.69-5.7-10.17-9.11-16.78-10.04-8.15-1.14-17.06.23-23.59 5.51ZM912.99 63.92c12.65-8.11 28.3-9.64 42.96-8.33 11.28 1.16 22.77 5.26 30.58 13.8 8.4 8.97 11.39 21.66 11.48 33.65-.02 15.98-.01 31.95-.01 47.93.18 7.9.45 15.85 2 23.62v.41c-9.9-.02-19.8.03-29.7-.02-.64-3.75-1.13-7.53-1.48-11.32-7.19 8.85-18.38 13.44-29.54 14.34h-9.68c-10.63-.85-21.5-4.76-28.67-12.94-7.88-8.6-9.95-21.09-8.15-32.31 1.25-7.64 5.09-14.95 11.15-19.85 7.81-6.42 18.15-9 28.1-9.16 11.99.02 23.98.01 35.97.01.34-6.43-.28-13.8-5.45-18.33-6.73-5.86-16.5-6.15-24.87-4.73-8.86 1.5-16.15 7.83-20.09 15.74-7.52-4.23-15.01-8.49-22.49-12.79 4.25-7.88 10.29-14.9 17.89-19.72m14.48 65.46c-4.77 4.65-5.37 12.54-2.15 18.22 2.55 4.01 7.11 6.22 11.71 6.88 8.79 1.53 18.86-.57 24.88-7.55 5.35-5.99 6.59-14.42 6.35-22.17-9.08-.01-18.16-.02-27.24-.01-4.83.06-9.91 1.3-13.55 4.63ZM851.76 58.76c10.24-.02 20.48 0 30.73 0 .02 38.75.01 77.5 0 116.25h-30.74c0-38.74-.01-77.49.01-116.23Z" class="cls-1"/></g><path id="_2588c9ff" d="M285.7 34.65c11.74-11.74 29.43-15.53 45.49-13.3 12.88 1.49 25.05 8.24 33 18.51 7.51 9.26 11.27 21.24 11.33 33.1-.04 17.01 0 34.02 0 51.03-.22 15.12-6.97 30.16-18.71 39.81-9.83 8.39-23.02 12.03-35.8 11.48-15.56.23-31.02-7-40.51-19.4-10.51 12.19-26.21 19.96-42.46 19.41-15.81.56-31.65-6.24-41.93-18.28-4.94 5.89-11.09 10.82-18.19 13.83-11.89 5.04-25.33 5.46-37.91 3.21-15.15-2.73-28.69-13.36-34.29-27.79.01 9.6.16 19.29 2.03 28.74h-29.7c-.68-3.8-1.19-7.61-1.61-11.44-6.95 9-18.27 13.45-29.33 14.43h-9.6c-10.86-.81-22.02-4.88-29.26-13.32-4.93-5.61-7.51-12.92-8.24-20.28v-8.49c.82-7.64 3.67-15.27 9.19-20.76 7.72-7.88 19.05-11.1 29.83-11.4 12.25-.01 24.5.01 36.75 0 .28-6.58-.47-14.14-5.88-18.65-6.97-5.64-16.77-5.89-25.2-4.27-8.57 1.68-15.58 7.91-19.39 15.61-7.52-4.2-14.98-8.51-22.48-12.75 4.63-8.88 11.67-16.6 20.55-21.35 13.22-7.26 28.99-8.27 43.68-6.28 13.28 1.81 26.45 8.94 32.77 21.17 7.83 14.4 5.59 31.29 5.93 47.02 8.73 0 17.45.01 26.18-.01.17 7.67 2.92 15.89 9.69 20.17 10.2 6.21 25.16 2.85 31.5-7.38 4.72-7.46 3.9-16.99 1.96-25.2-1.59-6.78-7.14-12.35-14.05-13.58-8.56-2.5-17.23.33-25.66 1.83-3.99-5.77-7.89-11.62-11.91-17.37 11.45-10.68 22.73-21.54 34.2-32.19-15.64-.04-31.27 0-46.91-.03 0-8.91-.01-17.82.01-26.73 29.24-.01 58.49-.01 87.73-.01.04 8.54-.04 17.07.05 25.61-9.09 8.27-18.42 16.27-27.59 24.44 8.71 2.48 17.16 6.45 23.61 12.94 11.94-22.11 27.16-42.18 41.14-62.99 11.4.02 22.79-.03 34.19.02-11.62 16.01-22.87 32.28-34.19 48.5 11.11-2.7 23.47-2.24 33.54 3.63-.53-15.22 5.13-30.85 16.46-41.25m30.7 13.95c-5.31.95-10.37 4.02-13.06 8.78-3.35 5.57-3.95 12.21-4.09 18.57-.01 15.35.01 30.69-.01 46.04-.03 5.7.9 11.67 4.22 16.44 6.83 10.87 23.29 12.64 33.27 5.29 6.14-4.87 7.99-13.17 8.25-20.64.04-16.7.02-33.4 0-50.11-.24-7.51-2.18-15.85-8.43-20.68-5.65-4.34-13.37-4.88-20.16-3.69m-86.97 49.03c-8 2.91-14.81 9.78-16.59 18.24-3 12.94 5.24 27.65 18.16 31.21 7.66 1.77 16.29.56 22.6-4.35 12.13-9.25 12.92-29.74 1.55-39.91-6.78-6.27-17.04-7.99-25.72-5.19M35.3 129.29c-6.83 6.25-5.41 19.44 3.32 23.28 9.55 4.19 21.84 2.94 29.67-4.23 6.36-6 7.93-15.23 7.74-23.6-9.01-.01-18.02.01-27.03-.01-4.85.05-10.06 1.11-13.7 4.56Z" data-name="#2588c9ff" style="fill:#2588c9"/></g></svg>