<svg width="61" height="25" viewBox="0 0 61 25" fill="none" xmlns="http://www.w3.org/2000/svg">
<rect x="0.104004" y="0.668335" width="60" height="24" rx="4" fill="#30B4A9"/>
<g clip-path="url(#clip0_117_36)">
<path d="M19.7316 9.66393H11.0646C10.959 9.66443 10.8572 9.70337 10.7783 9.77348C10.6993 9.84357 10.6486 9.94005 10.6355 10.0448L9.87394 16.9121C9.86717 16.9719 9.87306 17.0324 9.89122 17.0899C9.90939 17.1473 9.93943 17.2003 9.97939 17.2452C10.0194 17.2903 10.0683 17.3264 10.1232 17.3513C10.178 17.3761 10.2374 17.3892 10.2976 17.3895H20.4986C20.5588 17.3892 20.6183 17.3761 20.6731 17.3513C20.7279 17.3264 20.7768 17.2903 20.8168 17.2452C20.8568 17.2003 20.8869 17.1473 20.905 17.0899C20.9232 17.0324 20.9291 16.9719 20.9223 16.9121L20.1607 10.0448C20.1477 9.94005 20.097 9.84357 20.018 9.77348C19.939 9.70337 19.8372 9.66443 19.7316 9.66393Z" fill="#30B4A9" stroke="white" stroke-width="1.7168" stroke-linecap="round" stroke-linejoin="round"/>
<path d="M13.2528 11.3807V9.66393C13.2528 9.09478 13.4788 8.54893 13.8812 8.14648C14.2835 7.74403 14.8291 7.51793 15.3981 7.51793C15.9671 7.51793 16.5128 7.74403 16.9151 8.14648C17.3174 8.54893 17.5434 9.09478 17.5434 9.66393V11.3807" fill="#30B4A9"/>
<path d="M13.2528 11.3807V9.66393C13.2528 9.09478 13.4788 8.54893 13.8812 8.14648C14.2835 7.74403 14.8291 7.51793 15.3981 7.51793C15.9671 7.51793 16.5128 7.74403 16.9151 8.14648C17.3174 8.54893 17.5434 9.09478 17.5434 9.66393V11.3807" stroke="white" stroke-width="1.7168" stroke-linecap="round" stroke-linejoin="round"/>
</g>
<path d="M30.1699 14.808C30.1699 14.681 30.1504 14.5671 30.1113 14.4662C30.0755 14.362 30.0072 14.2676 29.9062 14.183C29.8053 14.0951 29.6637 14.0088 29.4814 13.9242C29.2992 13.8396 29.0632 13.7517 28.7734 13.6605C28.4512 13.5564 28.1452 13.4392 27.8555 13.309C27.569 13.1788 27.3151 13.0274 27.0938 12.8549C26.8757 12.6791 26.7031 12.4756 26.5762 12.2445C26.4525 12.0134 26.3906 11.7448 26.3906 11.4388C26.3906 11.1426 26.4557 10.8741 26.5859 10.6332C26.7161 10.389 26.8984 10.1807 27.1328 10.0082C27.3672 9.8324 27.6439 9.69731 27.9629 9.60291C28.2852 9.5085 28.6383 9.4613 29.0225 9.4613C29.5465 9.4613 30.0039 9.5557 30.3945 9.74451C30.7852 9.93331 31.0879 10.1921 31.3027 10.5209C31.5208 10.8497 31.6299 11.2256 31.6299 11.6488H30.1748C30.1748 11.4405 30.1309 11.2582 30.043 11.1019C29.9583 10.9424 29.8281 10.8171 29.6523 10.726C29.4798 10.6348 29.2617 10.5892 28.998 10.5892C28.7441 10.5892 28.5326 10.6283 28.3633 10.7064C28.194 10.7813 28.0671 10.8838 27.9824 11.014C27.8978 11.141 27.8555 11.2842 27.8555 11.4437C27.8555 11.5642 27.8848 11.6732 27.9434 11.7709C28.0052 11.8685 28.0964 11.9597 28.2168 12.0443C28.3372 12.1289 28.4854 12.2087 28.6611 12.2836C28.8369 12.3584 29.0404 12.4317 29.2715 12.5033C29.6589 12.6205 29.999 12.7523 30.292 12.8988C30.5882 13.0453 30.8356 13.2097 31.0342 13.392C31.2327 13.5743 31.3825 13.781 31.4834 14.0121C31.5843 14.2432 31.6348 14.5052 31.6348 14.7982C31.6348 15.1075 31.5745 15.3842 31.4541 15.6283C31.3337 15.8724 31.1595 16.0791 30.9316 16.2484C30.7038 16.4177 30.432 16.5463 30.1162 16.6342C29.8005 16.722 29.4473 16.766 29.0566 16.766C28.7051 16.766 28.3584 16.7204 28.0166 16.6293C27.6748 16.5349 27.3639 16.3933 27.084 16.2045C26.8073 16.0157 26.5859 15.7748 26.4199 15.4818C26.2539 15.1888 26.1709 14.8422 26.1709 14.4418H27.6406C27.6406 14.6631 27.6748 14.8503 27.7432 15.0033C27.8115 15.1563 27.9076 15.28 28.0312 15.3744C28.1582 15.4688 28.3079 15.5372 28.4805 15.5795C28.6562 15.6218 28.8483 15.6429 29.0566 15.6429C29.3105 15.6429 29.5189 15.6071 29.6816 15.5355C29.8477 15.4639 29.9697 15.3646 30.0479 15.2377C30.1292 15.1107 30.1699 14.9675 30.1699 14.808ZM38.1222 12.4545V13.597H34.4112V12.4545H38.1222ZM34.8458 9.55896V16.6683H33.3809V9.55896H34.8458ZM39.1671 9.55896V16.6683H37.7071V9.55896H39.1671ZM47.0314 12.9476V13.2845C47.0314 13.8249 46.9582 14.3099 46.8117 14.7396C46.6652 15.1693 46.4585 15.5355 46.1916 15.8383C45.9246 16.1377 45.6056 16.3672 45.2345 16.5267C44.8667 16.6862 44.4582 16.766 44.0089 16.766C43.563 16.766 43.1545 16.6862 42.7834 16.5267C42.4155 16.3672 42.0965 16.1377 41.8263 15.8383C41.5561 15.5355 41.3462 15.1693 41.1964 14.7396C41.05 14.3099 40.9767 13.8249 40.9767 13.2845V12.9476C40.9767 12.404 41.05 11.919 41.1964 11.4926C41.3429 11.0629 41.5496 10.6967 41.8166 10.3939C42.0867 10.0912 42.4058 9.86007 42.7736 9.70056C43.1447 9.54106 43.5532 9.4613 43.9992 9.4613C44.4484 9.4613 44.8569 9.54106 45.2248 9.70056C45.5959 9.86007 45.9149 10.0912 46.1818 10.3939C46.452 10.6967 46.6603 11.0629 46.8068 11.4926C46.9565 11.919 47.0314 12.404 47.0314 12.9476ZM45.5519 13.2845V12.9379C45.5519 12.5603 45.5177 12.2282 45.4494 11.9418C45.381 11.6553 45.2801 11.4144 45.1466 11.2191C45.0132 11.0238 44.8504 10.8773 44.6584 10.7797C44.4663 10.6788 44.2466 10.6283 43.9992 10.6283C43.7518 10.6283 43.5321 10.6788 43.34 10.7797C43.1512 10.8773 42.9901 11.0238 42.8566 11.2191C42.7264 11.4144 42.6271 11.6553 42.5588 11.9418C42.4904 12.2282 42.4562 12.5603 42.4562 12.9379V13.2845C42.4562 13.6589 42.4904 13.9909 42.5588 14.2806C42.6271 14.5671 42.728 14.8096 42.8615 15.0082C42.995 15.2035 43.1577 15.3516 43.3498 15.4525C43.5418 15.5534 43.7616 15.6039 44.0089 15.6039C44.2563 15.6039 44.4761 15.5534 44.6681 15.4525C44.8602 15.3516 45.0213 15.2035 45.1515 15.0082C45.2817 14.8096 45.381 14.5671 45.4494 14.2806C45.5177 13.9909 45.5519 13.6589 45.5519 13.2845ZM51.6047 14.1342H49.7932V12.9916H51.6047C51.8847 12.9916 52.1125 12.946 52.2883 12.8549C52.4641 12.7605 52.5927 12.6302 52.6741 12.4642C52.7554 12.2982 52.7961 12.111 52.7961 11.9027C52.7961 11.6911 52.7554 11.4942 52.6741 11.3119C52.5927 11.1296 52.4641 10.9831 52.2883 10.8724C52.1125 10.7618 51.8847 10.7064 51.6047 10.7064H50.301V16.6683H48.8362V9.55896H51.6047C52.1614 9.55896 52.6383 9.65987 53.0354 9.86169C53.4358 10.0603 53.7418 10.3353 53.9534 10.6869C54.165 11.0385 54.2707 11.4405 54.2707 11.8929C54.2707 12.3519 54.165 12.7491 53.9534 13.0844C53.7418 13.4196 53.4358 13.6784 53.0354 13.8607C52.6383 14.043 52.1614 14.1342 51.6047 14.1342Z" fill="white"/>
<defs>
<clipPath id="clip0_117_36">
<rect width="13.73" height="16" fill="white" transform="translate(8.104 4.66833)"/>
</clipPath>
</defs>
</svg>
