<svg width="50" height="50" viewBox="0 0 50 50" fill="none" xmlns="http://www.w3.org/2000/svg">
<path d="M32.9941 2.94727C32.901 2.82248 32.768 2.73325 32.6172 2.69434C32.5598 2.67911 32.5008 2.67123 32.4414 2.6709H29.0625C29.0035 2.67123 28.9447 2.6791 28.8877 2.69434H28.3564C28.2342 2.69424 28.1142 2.72654 28.0085 2.78796C27.9028 2.84937 27.8153 2.9377 27.7549 3.04395C27.7037 3.14331 27.6769 3.25345 27.6768 3.36523V34.2002C27.6975 35.5273 27.4586 36.8456 26.9736 38.0811L26.2725 39.4482C25.6435 40.4362 24.7595 41.2361 23.7139 41.7637C22.8818 42.1825 21.9764 42.4362 21.0479 42.5107C20.9668 42.5107 20.8848 42.5107 20.8037 42.5039H20.8008C20.4539 42.4874 20.1086 42.4462 19.7676 42.3809C19.6533 42.4023 19.5391 42.4219 19.4229 42.4385H19.418C19.3896 42.4434 19.3604 42.4463 19.332 42.4502C18.9035 42.5063 18.4708 42.5239 18.0391 42.5029C18.3637 42.4879 18.687 42.4514 19.0068 42.3936C18.0016 42.2049 17.0501 41.7978 16.2194 41.2011C15.3887 40.6045 14.6991 39.8328 14.1992 38.9404C15.2385 39.5069 16.3993 39.8138 17.5827 39.835C18.7661 39.8563 19.9371 39.5912 20.9961 39.0625C24.7314 37.1719 24.9482 32.7314 24.9482 31.7285C24.9482 31.5977 24.9482 31.5254 24.9482 31.5254V0.693359C24.9485 0.509548 25.0216 0.33334 25.1516 0.203366C25.2816 0.0733915 25.4578 0.000258343 25.6416 0L31.7939 0C31.9589 0.000529644 32.1183 0.0597863 32.2436 0.167153C32.3688 0.27452 32.4518 0.422981 32.4775 0.585938C32.5889 1.29589 32.7395 1.99912 32.9287 2.69238C32.9453 2.78027 32.9697 2.86426 32.9941 2.94727Z" fill="#00FFFB"/>
<path d="M19.8828 19.1407L19.8662 21.0518C19.6123 21.0596 19.3428 21.0743 19.0615 21.0977L18.9287 21.1094C15.5498 21.4131 10.5469 22.9844 7.03711 29.0039C6.875 29.335 5.59863 32.0743 5.59863 35.6846C5.57729 38.7615 6.57669 41.7587 8.44043 44.2071C6.25017 42.5675 4.5946 40.3159 3.68262 37.7364C3.26668 36.5569 3.01145 35.3267 2.92383 34.0791C2.6211 29.9424 4.14258 26.6729 4.31934 26.3086C9.23145 17.8994 17.0459 18.1748 19.2754 18.4463C19.4444 18.467 19.5998 18.5493 19.7118 18.6774C19.8239 18.8055 19.8848 18.9704 19.8828 19.1407V19.1407Z" fill="#00FFFB"/>
<path d="M21.0479 42.5068C20.4745 42.5532 19.8977 42.5329 19.3291 42.4463C19.3574 42.4463 19.3867 42.4395 19.415 42.4346H19.4199C19.5361 42.418 19.6504 42.3984 19.7646 42.377C20.1067 42.4425 20.4529 42.4836 20.8008 42.5V42.5C20.8848 42.5039 20.9668 42.5059 21.0479 42.5068Z" fill="#00FFFB"/>
<path d="M32.6172 2.69434H28.8867C28.9437 2.6791 29.0025 2.67123 29.0615 2.6709H32.4414C32.5008 2.67123 32.5598 2.67911 32.6172 2.69434V2.69434Z" fill="#00FFFB"/>
<path d="M44.3984 12.8398V14.4844C42.4346 13.9717 39.7832 12.7773 37.7812 9.99902C39.5529 11.2258 41.6153 11.9666 43.7627 12.1475C43.9363 12.1617 44.0982 12.2409 44.2161 12.3692C44.3339 12.4976 44.399 12.6656 44.3984 12.8398V12.8398Z" fill="#00FFFB"/>
<path d="M22.5996 21.832L22.5498 27.7949C22.549 27.8954 22.5264 27.9944 22.4835 28.0852C22.4405 28.176 22.3783 28.2564 22.3012 28.3207C22.224 28.385 22.1338 28.4317 22.0367 28.4577C21.9397 28.4836 21.8382 28.488 21.7393 28.4707C20.9323 28.328 20.1072 28.3207 19.2978 28.4492C19.2383 28.46 19.1807 28.4688 19.123 28.4805C18.0068 28.6757 16.9539 29.1365 16.0531 29.8239C15.1523 30.5113 14.4299 31.4052 13.9469 32.4303C13.4639 33.4553 13.2344 34.5815 13.2778 35.7138C13.3212 36.8461 13.6362 37.9514 14.1963 38.9365C13.3962 38.4979 12.6906 37.9055 12.1201 37.1934C11.7673 36.7512 11.4689 36.2683 11.2314 35.7549C10.969 35.1853 10.7821 34.5839 10.6758 33.9658C10.3774 32.2715 10.705 30.5264 11.5977 29.0557C13.1299 26.5527 16.1006 25.2588 19.0195 25.7764C19.1937 25.8072 19.3731 25.77 19.5206 25.6724C19.6682 25.5748 19.7727 25.4243 19.8125 25.252C19.8246 25.2024 19.8308 25.1516 19.831 25.1006L19.8643 21.1064V21.0479C20.5745 21.0243 21.2854 21.054 21.9912 21.1367C22.1603 21.1576 22.3159 21.24 22.4281 21.3683C22.5403 21.4965 22.6014 21.6616 22.5996 21.832Z" fill="#FF003D"/>
<path d="M44.3584 19.2383V21.6797C44.3587 21.7723 44.3403 21.864 44.3044 21.9494C44.2685 22.0348 44.2158 22.1121 44.1494 22.1767C44.142 22.1844 44.1338 22.1912 44.125 22.1972C40.8203 21.6386 37.7861 20.0078 36.2305 19.0547C36.124 18.9893 36.0019 18.954 35.877 18.9525C35.7521 18.9511 35.6291 18.9834 35.5211 19.0462C35.4132 19.109 35.3242 19.1999 35.2638 19.3092C35.2033 19.4185 35.1736 19.5421 35.1777 19.667C35.1777 19.7763 35.1846 19.8877 35.1875 19.998C35.1875 20.0088 35.1875 20.0175 35.1875 20.0283C35.3223 24.5019 35.3828 29.7353 35.2461 35.2324C35.2061 36.7578 35.1348 38.833 34.0986 41.2256C32.5293 44.8515 29.7578 46.8701 28.5723 47.6299C24.4023 50.3047 20.1943 50.0459 19.0576 49.9394H19.0078L18.8887 49.9277C17.5635 49.7842 12.0527 48.9609 8.43945 44.208C11.8574 46.7705 15.6201 47.1836 16.3398 47.25C17.4775 47.3554 21.6855 47.6142 25.8555 44.9394C27.04 44.1787 29.8115 42.1611 31.3828 38.5351C32.418 36.1425 32.4902 34.0674 32.5283 32.541C32.5391 32.1416 32.5469 31.7431 32.5547 31.3447L32.5371 24.8144V24.79L32.5195 19.2597C32.5007 18.4785 32.4798 17.7158 32.457 16.9717C32.453 16.8469 32.4829 16.7234 32.5434 16.6142C32.604 16.5051 32.6929 16.4144 32.8009 16.3517C32.9088 16.289 33.0317 16.2567 33.1565 16.2582C33.2813 16.2598 33.4034 16.295 33.5098 16.3603C35.4219 17.5322 39.5645 19.7256 43.7051 19.705C43.8491 19.7054 43.9896 19.6605 44.1068 19.5768C44.224 19.493 44.312 19.3746 44.3584 19.2383V19.2383Z" fill="#FF003D"/>
<path d="M19.3291 42.4463C18.9005 42.5024 18.4678 42.52 18.0361 42.499C18.3608 42.484 18.6841 42.4475 19.0039 42.3896L19.0586 42.3994C19.1484 42.417 19.2383 42.4316 19.3291 42.4463Z" fill="#FF003D"/>
<path d="M27.6768 34.2002C27.6975 35.5273 27.4586 36.8456 26.9736 38.0811C27.4502 36.8514 27.6847 35.5413 27.6641 34.2227V3.3877C27.6637 3.26714 27.695 3.1486 27.7549 3.04395C27.7037 3.14331 27.6769 3.25345 27.6768 3.36523V34.2002Z" fill="#FF003D"/>
<path d="M37.7813 9.99902C35.9717 8.72949 34.2188 6.70801 33.168 3.51074C33.1084 3.32715 33.0498 3.13965 32.9941 2.94727C32.901 2.82248 32.768 2.73325 32.6172 2.69434H34.5039C34.6688 2.69526 34.828 2.75465 34.9531 2.86195C35.0783 2.96925 35.1614 3.11749 35.1875 3.28027C35.6514 6.18848 36.6045 8.36719 37.7813 9.99902Z" fill="#FF003D"/>
<path d="M47.1152 15.5342V21.7061C47.1152 21.8893 47.0427 22.065 46.9135 22.195C46.7844 22.3249 46.609 22.3984 46.4258 22.3994C45.6586 22.4004 44.8927 22.3351 44.1367 22.2041H44.125C44.1338 22.1981 44.142 22.1912 44.1494 22.1836C44.2158 22.119 44.2685 22.0417 44.3044 21.9563C44.3403 21.8709 44.3587 21.7792 44.3584 21.6865V19.2383L44.3984 14.4834C45.0819 14.6643 45.7799 14.7849 46.4844 14.8438C46.6566 14.8596 46.8168 14.9391 46.9335 15.0668C47.0502 15.1945 47.115 15.3612 47.1152 15.5342Z" fill="#FF003D"/>
<path d="M44.3984 14.4844L44.3584 19.2383C44.3121 19.3738 44.2246 19.4916 44.1082 19.5751C43.9918 19.6586 43.8522 19.7037 43.709 19.7041C39.5645 19.7246 35.4258 17.5322 33.5137 16.3594C33.4073 16.2941 33.2852 16.2588 33.1604 16.2573C33.0356 16.2558 32.9127 16.2881 32.8048 16.3507C32.6968 16.4134 32.6079 16.5041 32.5474 16.6133C32.4868 16.7224 32.457 16.846 32.4609 16.9707C32.4844 17.7129 32.5052 18.4756 32.5234 19.2588L32.5381 24.7852V24.8096L32.5557 31.3398C32.5479 31.7383 32.54 32.1367 32.5293 32.5361C32.4912 34.0625 32.4189 36.1377 31.3838 38.5303C29.8125 42.1562 27.041 44.1738 25.8564 44.9346C21.6865 47.6094 17.4785 47.3506 16.3408 47.2451C15.6211 47.1787 11.8613 46.7656 8.44043 44.2031C6.57669 41.7548 5.57729 38.7576 5.59863 35.6807C5.59863 32.0674 6.875 29.333 7.03711 29C10.5527 22.9834 15.5498 21.4121 18.9277 21.1045L19.0605 21.0928C19.3418 21.0693 19.6113 21.0547 19.8652 21.0469V21.1055L19.832 25.0996C19.8318 25.1506 19.8256 25.2014 19.8135 25.251C19.7736 25.4233 19.6692 25.5738 19.5216 25.6714C19.3741 25.769 19.1947 25.8062 19.0205 25.7754C16.0996 25.2578 13.1289 26.5518 11.5986 29.0547C10.706 30.5254 10.3784 32.2705 10.6768 33.9648C10.7824 34.5831 10.9686 35.1849 11.2305 35.7549C11.468 36.2683 11.7663 36.7512 12.1191 37.1934C12.6896 37.9055 13.3952 38.4979 14.1953 38.9365C14.6951 39.8288 15.3848 40.6006 16.2155 41.1972C17.0462 41.7939 17.9977 42.201 19.0029 42.3896C18.6831 42.4475 18.3598 42.484 18.0352 42.499C18.4669 42.52 18.8996 42.5024 19.3281 42.4463C19.8968 42.5329 20.4735 42.5532 21.0469 42.5068C21.9754 42.4323 22.8808 42.1786 23.7129 41.7598C24.7578 41.2319 25.6411 40.432 26.2695 39.4443L26.9707 38.0771C27.4557 36.8417 27.6946 35.5234 27.6738 34.1963V3.36523C27.674 3.25345 27.7007 3.14331 27.752 3.04395C27.8124 2.9377 27.8999 2.84937 28.0056 2.78796C28.1112 2.72654 28.2313 2.69424 28.3535 2.69434H32.6172C32.7676 2.73345 32.9002 2.82266 32.9932 2.94727C33.0488 3.14258 33.1074 3.32715 33.167 3.51074C34.2178 6.70801 35.9707 8.72559 37.7803 9.99902C39.7832 12.7773 42.4346 13.9717 44.3984 14.4844Z" fill="black"/>
<path d="M26.2695 39.4443C25.6405 40.4323 24.7566 41.2322 23.7109 41.7598C22.8788 42.1786 21.9735 42.4323 21.0449 42.5068C20.4716 42.5532 19.8948 42.5329 19.3262 42.4463C18.8976 42.5024 18.4649 42.52 18.0332 42.499C18.3579 42.484 18.6812 42.4475 19.001 42.3896L19.0684 42.377C19.1826 42.3984 19.2969 42.418 19.4121 42.4346H19.417C19.8733 42.4993 20.3346 42.5212 20.7949 42.5H20.8008C21.8204 42.4557 22.819 42.1954 23.7305 41.7363C24.766 41.2123 25.6426 40.421 26.2695 39.4443V39.4443Z" fill="black"/>
<path d="M31.9248 2.69434H28.3564C28.2342 2.69424 28.1142 2.72654 28.0085 2.78796C27.9028 2.84937 27.8153 2.9377 27.7549 3.04395C27.8134 2.93158 27.9016 2.83739 28.0099 2.77163C28.1182 2.70586 28.2424 2.67102 28.3691 2.6709H31.749C31.8084 2.67129 31.8674 2.67917 31.9248 2.69434V2.69434Z" fill="black"/>
</svg>
