<svg width="50" height="42" viewBox="0 0 50 42" fill="none" xmlns="http://www.w3.org/2000/svg">
<path d="M15.724 41.3138C34.592 41.3138 44.912 25.6819 44.912 12.1258C44.912 11.6819 44.912 11.2399 44.882 10.7999C46.8896 9.34761 48.6228 7.54966 50 5.48989C48.1278 6.31948 46.1416 6.86343 44.108 7.10386C46.249 5.82222 47.8524 3.80483 48.618 1.42983C46.6044 2.62466 44.4012 3.46685 42.104 3.91987C40.1644 1.85728 37.4554 0.686279 34.6242 0.686279C28.9912 0.686279 24.3562 5.32144 24.3562 10.9542C24.3562 11.7357 24.4454 12.5147 24.622 13.2758C16.378 12.8626 8.68643 8.96323 3.47998 2.55786C0.772558 7.2186 2.17344 13.2586 6.65596 16.2518C5.02363 16.2035 3.42637 15.763 2 14.9678V15.0978C2.00137 19.9625 5.46162 24.1907 10.23 25.1539C8.71982 25.5657 7.13496 25.6258 5.59805 25.3298C6.93857 29.4983 10.8042 32.3716 15.182 32.4539C11.5502 35.3081 7.06123 36.8584 2.44199 36.8539C1.62578 36.8523 0.810352 36.8029 0 36.7058C4.69082 39.7161 10.1504 41.3132 15.724 41.3058" fill="#1DA1F2"/>
</svg>
